<svg xmlns="http://www.w3.org/2000/svg" viewBox="2 2 18 18">
  <g transform="matrix(.46715 0 0 .46715 3 2.998)" fill="#999">
    <path fill="#f00" d="m0 0h5.185v5.275h-5.185z"/>
    <path d="m7.132 0h5.187v5.275h-5.187z"/>
    <path d="m14.266 0h5.185v5.275h-5.185z"/>
    <path d="m21.398 0h5.185v5.275h-5.185z"/>
    <path fill="#f00" d="m29.06 0h5.186v5.275h-5.186z"/>
    <path d="m0 7.244h5.185v5.274h-5.185z"/>
    <path fill="#f00" d="m7.132 7.244h5.187v5.274h-5.187z"/>
    <path d="m14.266 7.244h5.185v5.274h-5.185z"/>
    <path d="m21.398 7.244h5.185v5.274h-5.185z"/>
    <path d="m29.06 7.244h5.186v5.274h-5.186z"/>
    <path fill="#f00" d="m0 14.487h5.185v5.275h-5.185z"/>
    <path fill="#f00" d="m7.132 14.487h5.187v5.275h-5.187z"/>
    <path d="m14.266 14.487h5.185v5.275h-5.185z"/>
    <path fill="#f00" d="m21.398 14.487h5.185v5.275h-5.185z"/>
    <path d="m29.06 14.487h5.186v5.275h-5.186z"/>
    <path d="m0 21.73h5.185v5.274h-5.185z"/>
    <path fill="#f00" d="m7.132 21.73h5.187v5.274h-5.187z"/>
    <path d="m14.266 21.73h5.185v5.274h-5.185z"/>
    <path d="m21.398 21.73h5.185v5.274h-5.185z"/>
    <path fill="#f00" d="m29.06 21.73h5.186v5.274h-5.186z"/>
    <path d="m29.06 28.975h5.186v5.275h-5.186z"/>
    <path fill="#f00" d="m0 28.975h5.185v5.275h-5.185z"/>
    <path d="m7.132 28.975h5.187v5.275h-5.187z"/>
    <path fill="#f00" d="m14.266 28.975h5.185v5.275h-5.185z"/>
    <path d="m21.398 28.975h5.185v5.275h-5.185z"/>
  </g>
</svg>
